<svg width="22" height="22" viewBox="0 0 22 22" fill="none" xmlns="http://www.w3.org/2000/svg">
<path fill-rule="evenodd" clip-rule="evenodd" d="M5.62223 9.04445C7.51227 9.04445 9.04445 7.51227 9.04445 5.62223C9.04445 3.73219 7.51227 2.20001 5.62223 2.20001C3.73219 2.20001 2.20001 3.73219 2.20001 5.62223C2.20001 7.51227 3.73219 9.04445 5.62223 9.04445ZM5.62223 19.8C7.51227 19.8 9.04445 18.2678 9.04445 16.3778C9.04445 14.4877 7.51227 12.9556 5.62223 12.9556C3.73219 12.9556 2.20001 14.4877 2.20001 16.3778C2.20001 18.2678 3.73219 19.8 5.62223 19.8ZM19.8 5.62223C19.8 7.51227 18.2678 9.04445 16.3778 9.04445C14.4878 9.04445 12.9556 7.51227 12.9556 5.62223C12.9556 3.73219 14.4878 2.20001 16.3778 2.20001C18.2678 2.20001 19.8 3.73219 19.8 5.62223ZM16.3778 19.8C18.2678 19.8 19.8 18.2678 19.8 16.3778C19.8 14.4877 18.2678 12.9556 16.3778 12.9556C14.4878 12.9556 12.9556 14.4877 12.9556 16.3778C12.9556 18.2678 14.4878 19.8 16.3778 19.8Z" fill="#1A1926"/>
</svg>
