<svg width="14" height="6" viewBox="0 0 14 6" fill="none" xmlns="http://www.w3.org/2000/svg">
<path fill-rule="evenodd" clip-rule="evenodd" d="M2.59998 3C2.59998 2.88955 2.68952 2.8 2.79998 2.8C2.91043 2.8 2.99998 2.88955 2.99998 3C2.99998 3.11046 2.91043 3.2 2.79998 3.2C2.68952 3.2 2.59998 3.11046 2.59998 3ZM2.79998 0.800003C1.58495 0.800003 0.599976 1.78498 0.599976 3C0.599976 4.21503 1.58495 5.2 2.79998 5.2C4.015 5.2 4.99998 4.21503 4.99998 3C4.99998 1.78498 4.015 0.800003 2.79998 0.800003ZM11 3C11 2.88955 11.0895 2.8 11.2 2.8C11.3104 2.8 11.4 2.88955 11.4 3C11.4 3.11046 11.3104 3.2 11.2 3.2C11.0895 3.2 11 3.11046 11 3ZM11.2 0.800003C9.98495 0.800003 8.99998 1.78498 8.99998 3C8.99998 4.21503 9.98495 5.2 11.2 5.2C12.415 5.2 13.4 4.21503 13.4 3C13.4 1.78498 12.415 0.800003 11.2 0.800003Z" fill="#637085"/>
</svg>
