<svg width="22" height="22" viewBox="0 0 22 22" fill="none" xmlns="http://www.w3.org/2000/svg">
<path fill-rule="evenodd" clip-rule="evenodd" d="M16.9022 8.18151C16.9022 9.2867 17.1944 9.93723 17.8372 10.6879C18.3243 11.2409 18.48 11.9517 18.48 12.721C18.48 13.4912 18.2264 14.2206 17.72 14.8135C17.0579 15.5243 16.123 15.9781 15.1688 16.057C13.7852 16.1749 12.4024 16.2741 11.0004 16.2741C9.59759 16.2741 8.21485 16.2147 6.83211 16.057C5.87705 15.9781 4.94211 15.5243 4.28004 14.8135C3.77277 14.2206 3.52001 13.4912 3.52001 12.721C3.52001 11.9517 3.67569 11.2409 4.16284 10.6879C4.82491 9.93723 5.09779 9.2867 5.09779 8.18151V7.80573C5.09779 6.32564 5.46774 5.35782 6.22777 4.41128C7.35775 3.02868 9.16904 2.20001 10.9611 2.20001H11.0389C12.8695 2.20001 14.7394 3.06857 15.8501 4.50966C16.5708 5.43759 16.9022 6.36552 16.9022 7.80573V8.18151ZM9.20719 17.361C9.64711 17.267 12.3278 17.267 12.7677 17.361C13.1438 17.4478 13.5504 17.6499 13.5504 18.093C13.5286 18.5158 13.2811 18.8889 12.9382 19.1256L12.9391 19.1264C12.4957 19.4721 11.9753 19.6919 11.4313 19.7708C11.1304 19.8089 10.8348 19.8106 10.5445 19.7708C9.99958 19.6919 9.47919 19.4721 9.03577 19.1264L9.03664 19.1256C8.6938 18.8889 8.44629 18.5158 8.42442 18.093C8.42442 17.6499 8.83111 17.4478 9.20719 17.361Z" fill="white"/>
<path d="M17.8372 10.6879C17.1943 9.93723 16.9022 9.2867 16.9022 8.18151V7.80573C16.9022 6.36552 16.5707 5.43759 15.8501 4.50966C14.7393 3.06857 12.8694 2.20001 11.0389 2.20001H10.9611C9.16903 2.20001 7.35773 3.02868 6.22775 4.41128C5.46773 5.35782 5.09777 6.32564 5.09777 7.80573V8.18151C5.09777 9.2867 4.8249 9.93723 4.16283 10.6879C3.67568 11.2409 3.52 11.9517 3.52 12.721C3.52 13.4912 3.77276 14.2206 4.28002 14.8135C4.94209 15.5243 5.87704 15.9781 6.8321 16.057C8.21484 16.2147 9.59758 16.2741 11.0004 16.2741C12.4024 16.2741 13.7852 16.1749 15.1688 16.057C16.123 15.9781 17.0579 15.5243 17.72 14.8135C18.2264 14.2206 18.48 13.4912 18.48 12.721C18.48 11.9517 18.3243 11.2409 17.8372 10.6879Z" fill="#1A1926"/>
<path opacity="0.4" d="M12.7677 17.361C12.3277 17.267 9.6471 17.267 9.20718 17.361C8.8311 17.4478 8.42442 17.6499 8.42442 18.0931C8.44628 18.5158 8.69379 18.8889 9.03663 19.1256L9.03576 19.1265C9.47918 19.4721 9.99957 19.6919 10.5444 19.7708C10.8348 19.8107 11.1304 19.8089 11.4313 19.7708C11.9753 19.6919 12.4957 19.4721 12.9391 19.1265L12.9382 19.1256C13.2811 18.8889 13.5286 18.5158 13.5504 18.0931C13.5504 17.6499 13.1437 17.4478 12.7677 17.361Z" fill="#1A1926"/>
</svg>
