<svg width="36" height="48" viewBox="0 0 36 48" fill="none" xmlns="http://www.w3.org/2000/svg">
<g clip-path="url(#clip0_979_1759)">
<path d="M0 9.6C0 6.23969 0 4.55953 0.653961 3.27606C1.2292 2.14708 2.14708 1.2292 3.27606 0.653961C4.55953 0 6.23969 0 9.6 0H24.0141C24.8947 0 25.3349 0 25.7492 0.0994683C26.1166 0.187657 26.4677 0.333112 26.7898 0.530495C27.1531 0.753126 27.4644 1.06444 28.0871 1.68707L34.3129 7.91294C34.9356 8.53556 35.2469 8.84688 35.4695 9.21017C35.6669 9.53228 35.8123 9.88344 35.9005 10.2508C36 10.6651 36 11.1053 36 11.9859V38.4C36 41.7603 36 43.4405 35.346 44.7239C34.7708 45.8529 33.8529 46.7708 32.7239 47.346C31.4405 48 29.7603 48 26.4 48H9.6C6.23969 48 4.55953 48 3.27606 47.346C2.14708 46.7708 1.2292 45.8529 0.653961 44.7239C0 43.4405 0 41.7603 0 38.4V9.6Z" fill="#FF6640"/>
<path d="M0 9.6C0 6.23969 0 4.55953 0.653961 3.27606C1.2292 2.14708 2.14708 1.2292 3.27606 0.653961C4.55953 0 6.23969 0 9.6 0H24.0141C24.8947 0 25.3349 0 25.7492 0.0994683C26.1166 0.187657 26.4677 0.333112 26.7898 0.530495C27.1531 0.753126 27.4644 1.06444 28.0871 1.68707L34.3129 7.91294C34.9356 8.53556 35.2469 8.84688 35.4695 9.21017C35.6669 9.53228 35.8123 9.88344 35.9005 10.2508C36 10.6651 36 11.1053 36 11.9859V38.4C36 41.7603 36 43.4405 35.346 44.7239C34.7708 45.8529 33.8529 46.7708 32.7239 47.346C31.4405 48 29.7603 48 26.4 48H9.6C6.23969 48 4.55953 48 3.27606 47.346C2.14708 46.7708 1.2292 45.8529 0.653961 44.7239C0 43.4405 0 41.7603 0 38.4V9.6Z" fill="url(#paint0_linear_979_1759)"/>
<path d="M24.6 10.2031V3.54145C24.6 2.9 25.3755 2.57876 25.8291 3.03233L32.9708 10.1739C33.4244 10.6275 33.1032 11.4031 32.4617 11.4031H25.8C25.1372 11.4031 24.6 10.8658 24.6 10.2031Z" fill="white"/>
<g filter="url(#filter0_d_979_1759)">
<path d="M10.6343 36C10.363 36 10.1025 35.9179 9.88024 35.763C9.06845 35.1954 8.95927 34.5638 9.01074 34.1335C9.15267 32.9502 10.7224 31.7117 13.678 30.4499C14.8508 28.0543 15.9668 25.1026 16.6319 22.6365C15.8537 21.0578 15.0972 19.0096 15.6486 17.8081C15.842 17.3873 16.0829 17.0646 16.5329 16.925C16.7107 16.8698 17.1599 16.8 17.3252 16.8C17.7182 16.8 18.0637 17.2717 18.3086 17.5624C18.5386 17.8357 19.0603 18.415 18.0177 22.5063C19.0689 24.5298 20.5583 26.5911 21.9854 28.0027C23.0078 27.8304 23.8874 27.7424 24.6041 27.7424C25.8253 27.7424 26.5653 28.0077 26.8671 28.5543C27.1166 29.0064 27.0145 29.5348 26.563 30.1243C26.1286 30.6905 25.5297 30.9899 24.8318 30.9899C23.8835 30.9899 22.7793 30.4317 21.5479 29.3291C19.3356 29.7601 16.752 30.5291 14.6637 31.3802C14.0117 32.6696 13.3871 33.7083 12.8054 34.47C12.006 35.513 11.3167 36 10.6343 36ZM12.7102 32.2742C11.0437 33.1472 10.3645 33.8646 10.3154 34.2687C10.3076 34.3355 10.2865 34.5114 10.6515 34.7716C10.7677 34.7375 11.4461 34.4489 12.7102 32.2742ZM23.3446 29.0457C23.9802 29.5014 24.1354 29.7318 24.551 29.7318C24.7335 29.7318 25.2536 29.7245 25.4946 29.4113C25.6108 29.2593 25.656 29.162 25.674 29.1096C25.5781 29.0624 25.4509 28.9664 24.7577 28.9664C24.3639 28.9672 23.8687 28.9831 23.3446 29.0457ZM17.5194 24.2616C16.9618 26.0598 16.2257 28.0012 15.4341 29.7594C17.064 29.1699 18.8357 28.6553 20.4999 28.2912C19.4471 27.1515 18.3951 25.7284 17.5194 24.2616ZM17.046 18.1112C16.9696 18.1352 16.0089 19.3882 17.1209 20.4487C17.8609 18.9114 17.0796 18.101 17.046 18.1112Z" fill="white"/>
</g>
</g>
<defs>
<filter id="filter0_d_979_1759" x="5" y="16.8" width="26" height="27.2" filterUnits="userSpaceOnUse" color-interpolation-filters="sRGB">
<feFlood flood-opacity="0" result="BackgroundImageFix"/>
<feColorMatrix in="SourceAlpha" type="matrix" values="0 0 0 0 0 0 0 0 0 0 0 0 0 0 0 0 0 0 127 0" result="hardAlpha"/>
<feOffset dy="4"/>
<feGaussianBlur stdDeviation="2"/>
<feComposite in2="hardAlpha" operator="out"/>
<feColorMatrix type="matrix" values="0 0 0 0 0 0 0 0 0 0 0 0 0 0 0 0 0 0 0.05 0"/>
<feBlend mode="normal" in2="BackgroundImageFix" result="effect1_dropShadow_979_1759"/>
<feBlend mode="normal" in="SourceGraphic" in2="effect1_dropShadow_979_1759" result="shape"/>
</filter>
<linearGradient id="paint0_linear_979_1759" x1="1.8" y1="3.71039e-07" x2="34.8" y2="48" gradientUnits="userSpaceOnUse">
<stop stop-color="#FF8B52"/>
<stop offset="1" stop-color="#F75931"/>
</linearGradient>
<clipPath id="clip0_979_1759">
<rect width="36" height="48" fill="white"/>
</clipPath>
</defs>
</svg>
